<mxfile host="app.diagrams.net" modified="2022-04-10T14:17:15.128Z" agent="5.0 (Windows NT 10.0; Win64; x64) AppleWebKit/537.36 (KHTML, like Gecko) Chrome/100.0.4896.75 Safari/537.36" etag="Jy6oB7GCjOfeQcpafPSt" version="17.4.2" type="github" pages="2">
  <diagram id="uru9vWaJZVy2WStaJyd-" name="中心化前">
    <mxGraphModel dx="1422" dy="762" grid="1" gridSize="10" guides="1" tooltips="1" connect="1" arrows="1" fold="1" page="1" pageScale="1" pageWidth="850" pageHeight="1100" math="0" shadow="0">
      <root>
        <mxCell id="0" />
        <mxCell id="1" parent="0" />
        <mxCell id="kRNR0OF8YTdY22zpzSEZ-10" value="pool" style="swimlane;childLayout=stackLayout;resizeParent=1;resizeParentMax=0;startSize=20;" vertex="1" parent="1">
          <mxGeometry x="90" y="130" width="810" height="950" as="geometry" />
        </mxCell>
        <mxCell id="kRNR0OF8YTdY22zpzSEZ-11" value="RSP" style="swimlane;startSize=20;" vertex="1" parent="kRNR0OF8YTdY22zpzSEZ-10">
          <mxGeometry y="20" width="230" height="930" as="geometry" />
        </mxCell>
        <mxCell id="kRNR0OF8YTdY22zpzSEZ-32" value="connectPlay接口" style="rounded=1;whiteSpace=wrap;html=1;fontSize=16;" vertex="1" parent="kRNR0OF8YTdY22zpzSEZ-11">
          <mxGeometry x="40" y="210" width="120" height="40" as="geometry" />
        </mxCell>
        <mxCell id="kRNR0OF8YTdY22zpzSEZ-12" value="成教" style="swimlane;startSize=20;" vertex="1" parent="kRNR0OF8YTdY22zpzSEZ-10">
          <mxGeometry x="230" y="20" width="190" height="930" as="geometry" />
        </mxCell>
        <mxCell id="kRNR0OF8YTdY22zpzSEZ-24" value="目录大纲JSON" style="rounded=1;whiteSpace=wrap;html=1;fontSize=16;" vertex="1" parent="kRNR0OF8YTdY22zpzSEZ-12">
          <mxGeometry x="20" y="130" width="120" height="40" as="geometry" />
        </mxCell>
        <mxCell id="kRNR0OF8YTdY22zpzSEZ-13" value="APP" style="swimlane;startSize=20;" vertex="1" parent="kRNR0OF8YTdY22zpzSEZ-10">
          <mxGeometry x="420" y="20" width="180" height="930" as="geometry">
            <mxRectangle x="230" y="20" width="30" height="680" as="alternateBounds" />
          </mxGeometry>
        </mxCell>
        <mxCell id="kRNR0OF8YTdY22zpzSEZ-22" value="目录大纲" style="rounded=1;whiteSpace=wrap;html=1;fontSize=16;" vertex="1" parent="kRNR0OF8YTdY22zpzSEZ-13">
          <mxGeometry x="20" y="130" width="120" height="40" as="geometry" />
        </mxCell>
        <mxCell id="kRNR0OF8YTdY22zpzSEZ-25" value="播放器" style="rounded=1;whiteSpace=wrap;html=1;fontSize=16;" vertex="1" parent="kRNR0OF8YTdY22zpzSEZ-13">
          <mxGeometry x="20" y="325" width="120" height="40" as="geometry" />
        </mxCell>
        <mxCell id="kRNR0OF8YTdY22zpzSEZ-26" value="" style="endArrow=classic;html=1;rounded=0;fontSize=16;entryX=0.5;entryY=0;entryDx=0;entryDy=0;" edge="1" parent="kRNR0OF8YTdY22zpzSEZ-13" target="kRNR0OF8YTdY22zpzSEZ-25">
          <mxGeometry width="50" height="50" relative="1" as="geometry">
            <mxPoint x="80" y="170" as="sourcePoint" />
            <mxPoint x="130" y="120" as="targetPoint" />
          </mxGeometry>
        </mxCell>
        <mxCell id="1svYh-Q59Pr18d9B5f4D-5" value="5" style="edgeLabel;html=1;align=center;verticalAlign=middle;resizable=0;points=[];fontSize=16;fontColor=#000000;" vertex="1" connectable="0" parent="kRNR0OF8YTdY22zpzSEZ-26">
          <mxGeometry x="0.3935" y="-2" relative="1" as="geometry">
            <mxPoint as="offset" />
          </mxGeometry>
        </mxCell>
        <mxCell id="kRNR0OF8YTdY22zpzSEZ-27" value="URL：m3u8地址" style="text;html=1;align=center;verticalAlign=middle;resizable=0;points=[];autosize=1;strokeColor=none;fillColor=none;fontSize=16;" vertex="1" parent="kRNR0OF8YTdY22zpzSEZ-13">
          <mxGeometry x="40" y="200" width="140" height="20" as="geometry" />
        </mxCell>
        <mxCell id="kRNR0OF8YTdY22zpzSEZ-29" value="" style="endArrow=classic;html=1;rounded=0;fontSize=16;entryX=1;entryY=0.5;entryDx=0;entryDy=0;" edge="1" parent="kRNR0OF8YTdY22zpzSEZ-13" target="kRNR0OF8YTdY22zpzSEZ-24">
          <mxGeometry width="50" height="50" relative="1" as="geometry">
            <mxPoint x="20" y="150" as="sourcePoint" />
            <mxPoint x="70" y="100" as="targetPoint" />
          </mxGeometry>
        </mxCell>
        <mxCell id="1svYh-Q59Pr18d9B5f4D-2" value="2" style="edgeLabel;html=1;align=center;verticalAlign=middle;resizable=0;points=[];fontSize=16;fontColor=#000000;" vertex="1" connectable="0" parent="kRNR0OF8YTdY22zpzSEZ-29">
          <mxGeometry x="0.2857" y="-1" relative="1" as="geometry">
            <mxPoint as="offset" />
          </mxGeometry>
        </mxCell>
        <mxCell id="kRNR0OF8YTdY22zpzSEZ-33" value="" style="endArrow=classic;html=1;rounded=0;fontSize=16;entryX=1;entryY=0.5;entryDx=0;entryDy=0;" edge="1" parent="kRNR0OF8YTdY22zpzSEZ-10" target="kRNR0OF8YTdY22zpzSEZ-32">
          <mxGeometry width="50" height="50" relative="1" as="geometry">
            <mxPoint x="267" y="190" as="sourcePoint" />
            <mxPoint x="370" y="240" as="targetPoint" />
            <Array as="points">
              <mxPoint x="267" y="250" />
            </Array>
          </mxGeometry>
        </mxCell>
        <mxCell id="1svYh-Q59Pr18d9B5f4D-1" value="3" style="edgeLabel;html=1;align=center;verticalAlign=middle;resizable=0;points=[];fontSize=16;fontColor=#000000;" vertex="1" connectable="0" parent="kRNR0OF8YTdY22zpzSEZ-33">
          <mxGeometry x="0.485" y="-4" relative="1" as="geometry">
            <mxPoint as="offset" />
          </mxGeometry>
        </mxCell>
        <mxCell id="kRNR0OF8YTdY22zpzSEZ-31" value="" style="endArrow=classic;html=1;rounded=0;fontSize=16;entryX=0.5;entryY=1;entryDx=0;entryDy=0;exitX=1;exitY=0.5;exitDx=0;exitDy=0;" edge="1" parent="kRNR0OF8YTdY22zpzSEZ-10" source="kRNR0OF8YTdY22zpzSEZ-25" target="kRNR0OF8YTdY22zpzSEZ-21">
          <mxGeometry width="50" height="50" relative="1" as="geometry">
            <mxPoint x="530" y="190" as="sourcePoint" />
            <mxPoint x="580" y="140" as="targetPoint" />
            <Array as="points">
              <mxPoint x="710" y="365" />
              <mxPoint x="710" y="210" />
            </Array>
          </mxGeometry>
        </mxCell>
        <mxCell id="1svYh-Q59Pr18d9B5f4D-4" value="6" style="edgeLabel;html=1;align=center;verticalAlign=middle;resizable=0;points=[];fontSize=16;fontColor=#000000;" vertex="1" connectable="0" parent="kRNR0OF8YTdY22zpzSEZ-31">
          <mxGeometry x="-0.4338" y="3" relative="1" as="geometry">
            <mxPoint as="offset" />
          </mxGeometry>
        </mxCell>
        <mxCell id="kRNR0OF8YTdY22zpzSEZ-19" value="学生" style="swimlane;startSize=20;" vertex="1" parent="kRNR0OF8YTdY22zpzSEZ-10">
          <mxGeometry x="600" y="20" width="210" height="930" as="geometry" />
        </mxCell>
        <mxCell id="kRNR0OF8YTdY22zpzSEZ-21" value="学习课件" style="rounded=1;whiteSpace=wrap;html=1;fontSize=16;" vertex="1" parent="kRNR0OF8YTdY22zpzSEZ-19">
          <mxGeometry x="50" y="130" width="120" height="40" as="geometry" />
        </mxCell>
        <mxCell id="kRNR0OF8YTdY22zpzSEZ-23" value="" style="endArrow=classic;html=1;rounded=0;entryX=1;entryY=0.5;entryDx=0;entryDy=0;" edge="1" parent="kRNR0OF8YTdY22zpzSEZ-19" target="kRNR0OF8YTdY22zpzSEZ-22">
          <mxGeometry width="50" height="50" relative="1" as="geometry">
            <mxPoint x="50" y="150" as="sourcePoint" />
            <mxPoint x="100" y="100" as="targetPoint" />
          </mxGeometry>
        </mxCell>
        <mxCell id="1svYh-Q59Pr18d9B5f4D-3" value="1" style="edgeLabel;html=1;align=center;verticalAlign=middle;resizable=0;points=[];fontSize=16;fontColor=#000000;" vertex="1" connectable="0" parent="kRNR0OF8YTdY22zpzSEZ-23">
          <mxGeometry x="-0.5111" relative="1" as="geometry">
            <mxPoint as="offset" />
          </mxGeometry>
        </mxCell>
        <mxCell id="kRNR0OF8YTdY22zpzSEZ-30" value="" style="endArrow=classic;html=1;rounded=0;fontSize=16;exitX=0.875;exitY=1;exitDx=0;exitDy=0;exitPerimeter=0;" edge="1" parent="1" source="kRNR0OF8YTdY22zpzSEZ-24">
          <mxGeometry width="50" height="50" relative="1" as="geometry">
            <mxPoint x="400" y="320" as="sourcePoint" />
            <mxPoint x="540" y="323" as="targetPoint" />
            <Array as="points">
              <mxPoint x="445" y="360" />
              <mxPoint x="470" y="360" />
              <mxPoint x="490" y="360" />
              <mxPoint x="540" y="360" />
            </Array>
          </mxGeometry>
        </mxCell>
        <mxCell id="1svYh-Q59Pr18d9B5f4D-6" value="4" style="edgeLabel;html=1;align=center;verticalAlign=middle;resizable=0;points=[];fontSize=16;fontColor=#000000;" vertex="1" connectable="0" parent="kRNR0OF8YTdY22zpzSEZ-30">
          <mxGeometry x="0.4419" y="1" relative="1" as="geometry">
            <mxPoint as="offset" />
          </mxGeometry>
        </mxCell>
      </root>
    </mxGraphModel>
  </diagram>
  <diagram id="giztfc1IRxYqYgYhi5p3" name="中心化后">
    <mxGraphModel dx="1422" dy="762" grid="1" gridSize="10" guides="1" tooltips="1" connect="1" arrows="1" fold="1" page="1" pageScale="1" pageWidth="850" pageHeight="1100" math="0" shadow="0">
      <root>
        <mxCell id="0" />
        <mxCell id="1" parent="0" />
        <mxCell id="Po8hCObVcjZqqMwq0fd3-1" value="pool" style="swimlane;childLayout=stackLayout;resizeParent=1;resizeParentMax=0;startSize=20;" vertex="1" parent="1">
          <mxGeometry x="90" y="130" width="940" height="1461.5" as="geometry" />
        </mxCell>
        <mxCell id="Po8hCObVcjZqqMwq0fd3-2" value="RSP" style="swimlane;startSize=20;" vertex="1" parent="Po8hCObVcjZqqMwq0fd3-1">
          <mxGeometry y="20" width="230" height="1441.5" as="geometry" />
        </mxCell>
        <mxCell id="Po8hCObVcjZqqMwq0fd3-3" value="connectPlay接口" style="rounded=1;whiteSpace=wrap;html=1;fontSize=16;" vertex="1" parent="Po8hCObVcjZqqMwq0fd3-2">
          <mxGeometry x="40" y="210" width="120" height="40" as="geometry" />
        </mxCell>
        <mxCell id="Po8hCObVcjZqqMwq0fd3-4" value="token接口" style="rounded=1;whiteSpace=wrap;html=1;fontSize=16;" vertex="1" parent="Po8hCObVcjZqqMwq0fd3-2">
          <mxGeometry x="40" y="290" width="120" height="40" as="geometry" />
        </mxCell>
        <mxCell id="qkWlC5fajE1eJnTLpv7a-22" value="验证接口" style="rounded=1;whiteSpace=wrap;html=1;fontSize=16;fontColor=#000000;" vertex="1" parent="Po8hCObVcjZqqMwq0fd3-2">
          <mxGeometry x="40" y="570" width="120" height="40" as="geometry" />
        </mxCell>
        <mxCell id="qkWlC5fajE1eJnTLpv7a-25" value="判断" style="rhombus;whiteSpace=wrap;html=1;fontSize=16;fontColor=#000000;" vertex="1" parent="Po8hCObVcjZqqMwq0fd3-2">
          <mxGeometry x="70" y="670" width="80" height="80" as="geometry" />
        </mxCell>
        <mxCell id="qkWlC5fajE1eJnTLpv7a-24" value="" style="endArrow=classic;html=1;rounded=0;fontSize=16;fontColor=#FF3333;exitX=0.558;exitY=1.1;exitDx=0;exitDy=0;exitPerimeter=0;" edge="1" parent="Po8hCObVcjZqqMwq0fd3-2" source="qkWlC5fajE1eJnTLpv7a-22" target="qkWlC5fajE1eJnTLpv7a-25">
          <mxGeometry width="50" height="50" relative="1" as="geometry">
            <mxPoint x="270" y="730" as="sourcePoint" />
            <mxPoint x="320" y="680" as="targetPoint" />
          </mxGeometry>
        </mxCell>
        <mxCell id="qkWlC5fajE1eJnTLpv7a-29" value="" style="endArrow=classic;html=1;rounded=0;fontSize=16;fontColor=#FF3333;entryX=0.724;entryY=1.075;entryDx=0;entryDy=0;entryPerimeter=0;" edge="1" parent="Po8hCObVcjZqqMwq0fd3-2" target="Po8hCObVcjZqqMwq0fd3-12">
          <mxGeometry width="50" height="50" relative="1" as="geometry">
            <mxPoint x="110" y="750" as="sourcePoint" />
            <mxPoint x="640" y="540" as="targetPoint" />
            <Array as="points">
              <mxPoint x="640" y="750" />
            </Array>
          </mxGeometry>
        </mxCell>
        <mxCell id="qkWlC5fajE1eJnTLpv7a-30" value="FASE" style="edgeLabel;html=1;align=center;verticalAlign=middle;resizable=0;points=[];fontSize=16;fontColor=#000000;" vertex="1" connectable="0" parent="qkWlC5fajE1eJnTLpv7a-29">
          <mxGeometry x="-0.5517" y="1" relative="1" as="geometry">
            <mxPoint as="offset" />
          </mxGeometry>
        </mxCell>
        <mxCell id="qkWlC5fajE1eJnTLpv7a-31" value="URL：空的播放地址" style="edgeLabel;html=1;align=center;verticalAlign=middle;resizable=0;points=[];fontSize=16;fontColor=#000000;" vertex="1" connectable="0" parent="qkWlC5fajE1eJnTLpv7a-29">
          <mxGeometry x="-0.1905" y="2" relative="1" as="geometry">
            <mxPoint as="offset" />
          </mxGeometry>
        </mxCell>
        <mxCell id="Po8hCObVcjZqqMwq0fd3-6" value="成教" style="swimlane;startSize=20;" vertex="1" parent="Po8hCObVcjZqqMwq0fd3-1">
          <mxGeometry x="230" y="20" width="190" height="1441.5" as="geometry" />
        </mxCell>
        <mxCell id="Po8hCObVcjZqqMwq0fd3-7" value="目录大纲JSON" style="rounded=1;whiteSpace=wrap;html=1;fontSize=16;" vertex="1" parent="Po8hCObVcjZqqMwq0fd3-6">
          <mxGeometry x="20" y="130" width="120" height="40" as="geometry" />
        </mxCell>
        <mxCell id="qkWlC5fajE1eJnTLpv7a-15" value="" style="endArrow=classic;html=1;rounded=0;fontSize=16;fontColor=#FF3333;entryX=0.85;entryY=-0.075;entryDx=0;entryDy=0;entryPerimeter=0;" edge="1" parent="Po8hCObVcjZqqMwq0fd3-6" target="qkWlC5fajE1eJnTLpv7a-5">
          <mxGeometry width="50" height="50" relative="1" as="geometry">
            <mxPoint x="100" y="175" as="sourcePoint" />
            <mxPoint x="150" y="125" as="targetPoint" />
            <Array as="points">
              <mxPoint x="100" y="200" />
              <mxPoint x="350" y="200" />
              <mxPoint x="350" y="240" />
              <mxPoint x="303" y="240" />
            </Array>
          </mxGeometry>
        </mxCell>
        <mxCell id="Po8hCObVcjZqqMwq0fd3-17" value="" style="endArrow=classic;html=1;rounded=0;fontSize=16;entryX=1;entryY=0.5;entryDx=0;entryDy=0;" edge="1" parent="Po8hCObVcjZqqMwq0fd3-1" target="Po8hCObVcjZqqMwq0fd3-3">
          <mxGeometry width="50" height="50" relative="1" as="geometry">
            <mxPoint x="267" y="190" as="sourcePoint" />
            <mxPoint x="370" y="240" as="targetPoint" />
            <Array as="points">
              <mxPoint x="267" y="250" />
            </Array>
          </mxGeometry>
        </mxCell>
        <mxCell id="Po8hCObVcjZqqMwq0fd3-18" value="" style="endArrow=classic;html=1;rounded=0;fontSize=16;exitX=0.25;exitY=1;exitDx=0;exitDy=0;entryX=1;entryY=0.5;entryDx=0;entryDy=0;" edge="1" parent="Po8hCObVcjZqqMwq0fd3-1" source="Po8hCObVcjZqqMwq0fd3-7" target="Po8hCObVcjZqqMwq0fd3-4">
          <mxGeometry width="50" height="50" relative="1" as="geometry">
            <mxPoint x="300" y="330" as="sourcePoint" />
            <mxPoint x="350" y="280" as="targetPoint" />
            <Array as="points">
              <mxPoint x="280" y="330" />
            </Array>
          </mxGeometry>
        </mxCell>
        <mxCell id="Po8hCObVcjZqqMwq0fd3-10" value="APP" style="swimlane;startSize=20;" vertex="1" parent="Po8hCObVcjZqqMwq0fd3-1">
          <mxGeometry x="420" y="20" width="310" height="1441.5" as="geometry">
            <mxRectangle x="230" y="20" width="30" height="680" as="alternateBounds" />
          </mxGeometry>
        </mxCell>
        <mxCell id="Po8hCObVcjZqqMwq0fd3-11" value="目录大纲" style="rounded=1;whiteSpace=wrap;html=1;fontSize=16;" vertex="1" parent="Po8hCObVcjZqqMwq0fd3-10">
          <mxGeometry x="170" y="290" width="120" height="40" as="geometry" />
        </mxCell>
        <mxCell id="Po8hCObVcjZqqMwq0fd3-12" value="播放器" style="rounded=1;whiteSpace=wrap;html=1;fontSize=16;" vertex="1" parent="Po8hCObVcjZqqMwq0fd3-10">
          <mxGeometry x="10" y="490" width="290" height="40" as="geometry" />
        </mxCell>
        <mxCell id="qkWlC5fajE1eJnTLpv7a-5" value="token" style="rounded=1;whiteSpace=wrap;html=1;fontSize=16;" vertex="1" parent="Po8hCObVcjZqqMwq0fd3-10">
          <mxGeometry x="9" y="290" width="120" height="40" as="geometry" />
        </mxCell>
        <mxCell id="qkWlC5fajE1eJnTLpv7a-16" value="" style="endArrow=classic;html=1;rounded=0;fontSize=16;fontColor=#FF3333;entryX=0.25;entryY=0;entryDx=0;entryDy=0;" edge="1" parent="Po8hCObVcjZqqMwq0fd3-10" target="Po8hCObVcjZqqMwq0fd3-11">
          <mxGeometry width="50" height="50" relative="1" as="geometry">
            <mxPoint x="160" y="240" as="sourcePoint" />
            <mxPoint x="200" y="280" as="targetPoint" />
            <Array as="points">
              <mxPoint x="160" y="240" />
              <mxPoint x="200" y="240" />
            </Array>
          </mxGeometry>
        </mxCell>
        <mxCell id="qkWlC5fajE1eJnTLpv7a-17" value="" style="endArrow=classic;html=1;rounded=0;fontSize=16;fontColor=#FF3333;" edge="1" parent="Po8hCObVcjZqqMwq0fd3-10">
          <mxGeometry width="50" height="50" relative="1" as="geometry">
            <mxPoint x="90" y="330" as="sourcePoint" />
            <mxPoint x="150" y="490" as="targetPoint" />
            <Array as="points">
              <mxPoint x="90" y="440" />
              <mxPoint x="150" y="440" />
            </Array>
          </mxGeometry>
        </mxCell>
        <mxCell id="qkWlC5fajE1eJnTLpv7a-19" value="token" style="edgeLabel;html=1;align=center;verticalAlign=middle;resizable=0;points=[];fontSize=16;fontColor=#000000;" vertex="1" connectable="0" parent="qkWlC5fajE1eJnTLpv7a-17">
          <mxGeometry x="-0.6182" y="-3" relative="1" as="geometry">
            <mxPoint as="offset" />
          </mxGeometry>
        </mxCell>
        <mxCell id="qkWlC5fajE1eJnTLpv7a-18" value="" style="endArrow=classic;html=1;rounded=0;fontSize=16;fontColor=#FF3333;exitX=0.5;exitY=1;exitDx=0;exitDy=0;" edge="1" parent="Po8hCObVcjZqqMwq0fd3-10" source="Po8hCObVcjZqqMwq0fd3-11">
          <mxGeometry width="50" height="50" relative="1" as="geometry">
            <mxPoint x="220" y="425" as="sourcePoint" />
            <mxPoint x="150" y="490" as="targetPoint" />
            <Array as="points">
              <mxPoint x="230" y="440" />
              <mxPoint x="150" y="440" />
            </Array>
          </mxGeometry>
        </mxCell>
        <mxCell id="qkWlC5fajE1eJnTLpv7a-21" value="URL：虚拟的m3u8" style="edgeLabel;html=1;align=center;verticalAlign=middle;resizable=0;points=[];fontSize=16;fontColor=#000000;" vertex="1" connectable="0" parent="qkWlC5fajE1eJnTLpv7a-18">
          <mxGeometry x="-0.7083" y="-2" relative="1" as="geometry">
            <mxPoint as="offset" />
          </mxGeometry>
        </mxCell>
        <mxCell id="qkWlC5fajE1eJnTLpv7a-23" value="" style="endArrow=classic;html=1;rounded=0;fontSize=16;fontColor=#FF3333;entryX=1;entryY=0.5;entryDx=0;entryDy=0;" edge="1" parent="Po8hCObVcjZqqMwq0fd3-10" target="qkWlC5fajE1eJnTLpv7a-22">
          <mxGeometry width="50" height="50" relative="1" as="geometry">
            <mxPoint x="150" y="530" as="sourcePoint" />
            <mxPoint x="200" y="480" as="targetPoint" />
            <Array as="points">
              <mxPoint x="150" y="590" />
            </Array>
          </mxGeometry>
        </mxCell>
        <mxCell id="Po8hCObVcjZqqMwq0fd3-20" value="学生" style="swimlane;startSize=20;" vertex="1" parent="Po8hCObVcjZqqMwq0fd3-1">
          <mxGeometry x="730" y="20" width="210" height="1441.5" as="geometry" />
        </mxCell>
        <mxCell id="Po8hCObVcjZqqMwq0fd3-21" value="学习课件" style="rounded=1;whiteSpace=wrap;html=1;fontSize=16;" vertex="1" parent="Po8hCObVcjZqqMwq0fd3-20">
          <mxGeometry x="60" y="170" width="120" height="40" as="geometry" />
        </mxCell>
        <mxCell id="qkWlC5fajE1eJnTLpv7a-13" value="" style="endArrow=classic;html=1;rounded=0;fontSize=16;fontColor=#FF3333;entryX=0.75;entryY=0;entryDx=0;entryDy=0;" edge="1" parent="Po8hCObVcjZqqMwq0fd3-20" target="Po8hCObVcjZqqMwq0fd3-11">
          <mxGeometry width="50" height="50" relative="1" as="geometry">
            <mxPoint x="60" y="190" as="sourcePoint" />
            <mxPoint x="110" y="140" as="targetPoint" />
            <Array as="points">
              <mxPoint x="-50" y="190" />
            </Array>
          </mxGeometry>
        </mxCell>
        <mxCell id="qkWlC5fajE1eJnTLpv7a-14" value="" style="endArrow=classic;html=1;rounded=0;fontSize=16;fontColor=#FF3333;entryX=1;entryY=0.5;entryDx=0;entryDy=0;" edge="1" parent="Po8hCObVcjZqqMwq0fd3-20" target="Po8hCObVcjZqqMwq0fd3-7">
          <mxGeometry width="50" height="50" relative="1" as="geometry">
            <mxPoint x="-80" y="290" as="sourcePoint" />
            <mxPoint x="-420" y="120" as="targetPoint" />
            <Array as="points">
              <mxPoint x="-80" y="150" />
            </Array>
          </mxGeometry>
        </mxCell>
        <mxCell id="Po8hCObVcjZqqMwq0fd3-25" value="" style="endArrow=classic;html=1;rounded=0;fontSize=16;fontColor=#FF3333;exitX=0.75;exitY=1;exitDx=0;exitDy=0;entryX=0.358;entryY=1.025;entryDx=0;entryDy=0;entryPerimeter=0;" edge="1" parent="Po8hCObVcjZqqMwq0fd3-1" source="Po8hCObVcjZqqMwq0fd3-4" target="Po8hCObVcjZqqMwq0fd3-7">
          <mxGeometry width="50" height="50" relative="1" as="geometry">
            <mxPoint x="310" y="280" as="sourcePoint" />
            <mxPoint x="360" y="230" as="targetPoint" />
            <Array as="points">
              <mxPoint x="130" y="390" />
              <mxPoint x="293" y="390" />
            </Array>
          </mxGeometry>
        </mxCell>
        <mxCell id="qkWlC5fajE1eJnTLpv7a-26" value="" style="endArrow=classic;html=1;rounded=0;fontSize=16;fontColor=#FF3333;entryX=0.669;entryY=1.075;entryDx=0;entryDy=0;entryPerimeter=0;exitX=1;exitY=0.5;exitDx=0;exitDy=0;" edge="1" parent="Po8hCObVcjZqqMwq0fd3-1" source="qkWlC5fajE1eJnTLpv7a-25" target="Po8hCObVcjZqqMwq0fd3-12">
          <mxGeometry width="50" height="50" relative="1" as="geometry">
            <mxPoint x="140" y="740" as="sourcePoint" />
            <mxPoint x="190" y="690" as="targetPoint" />
            <Array as="points">
              <mxPoint x="624" y="730" />
            </Array>
          </mxGeometry>
        </mxCell>
        <mxCell id="qkWlC5fajE1eJnTLpv7a-27" value="TRUE" style="edgeLabel;html=1;align=center;verticalAlign=middle;resizable=0;points=[];fontSize=16;fontColor=#000000;" vertex="1" connectable="0" parent="qkWlC5fajE1eJnTLpv7a-26">
          <mxGeometry x="-0.5914" y="-1" relative="1" as="geometry">
            <mxPoint as="offset" />
          </mxGeometry>
        </mxCell>
        <mxCell id="qkWlC5fajE1eJnTLpv7a-28" value="URL：可以播放的TS地址" style="edgeLabel;html=1;align=center;verticalAlign=middle;resizable=0;points=[];fontSize=16;fontColor=#000000;" vertex="1" connectable="0" parent="qkWlC5fajE1eJnTLpv7a-26">
          <mxGeometry x="-0.0046" y="2" relative="1" as="geometry">
            <mxPoint as="offset" />
          </mxGeometry>
        </mxCell>
      </root>
    </mxGraphModel>
  </diagram>
</mxfile>
